<svg xmlns="http://www.w3.org/2000/svg" viewBox="0 0 1440 320"><path fill="#0099ff" fill-opacity="1" d="M0,32L26.7,58.7C53.3,85,107,139,160,160C213.3,181,267,171,320,149.3C373.3,128,427,96,480,101.3C533.3,107,587,149,640,149.3C693.3,149,747,107,800,128C853.3,149,907,235,960,224C1013.3,213,1067,107,1120,74.7C1173.3,43,1227,85,1280,101.3C1333.3,117,1387,107,1413,101.3L1440,96L1440,320L1413.3,320C1386.7,320,1333,320,1280,320C1226.7,320,1173,320,1120,320C1066.7,320,1013,320,960,320C906.7,320,853,320,800,320C746.7,320,693,320,640,320C586.7,320,533,320,480,320C426.7,320,373,320,320,320C266.7,320,213,320,160,320C106.7,320,53,320,27,320L0,320Z"></path></svg>