<?xml version="1.0" standalone="no"?>
<!DOCTYPE svg PUBLIC "-//W3C//DTD SVG 20010904//EN"
 "http://www.w3.org/TR/2001/REC-SVG-20010904/DTD/svg10.dtd">
<svg version="1.0" xmlns="http://www.w3.org/2000/svg"
 width="50.000000pt" height="50.000000pt" viewBox="0 0 50.00000 50.00000"
 preserveAspectRatio="xMidYMid meet">

<g transform="translate(0.000000,800.000000) scale(0.100000,-0.100000)"
fill="#000000" stroke="none">
<path d="M1827 6463 c-153 -31 -264 -136 -298 -280 -13 -56 -12 -4291 1 -4349
28 -125 118 -223 249 -269 39 -13 288 -15 2222 -15 1973 0 2182 1 2225 16 96
32 179 106 224 199 l25 50 0 2190 0 2190 -29 62 c-50 109 -165 194 -280 208
-28 3 -1002 7 -2165 8 -1619 2 -2128 -1 -2174 -10z m1266 -887 c65 -31 140
-109 170 -174 16 -36 21 -66 20 -132 0 -102 -19 -151 -85 -225 -84 -93 -205
-131 -322 -102 -181 45 -292 216 -256 393 15 72 31 104 77 155 48 53 82 77
146 100 73 27 176 21 250 -15z m197 -1896 l0 -960 -340 0 -340 0 0 960 0 960
340 0 340 0 0 -960z m920 835 c0 -115 9 -155 25 -106 10 32 103 117 163 149
31 16 91 41 132 54 68 21 94 23 270 23 176 0 202 -2 270 -23 245 -77 359 -218
415 -513 14 -70 18 -194 22 -731 l5 -648 -296 0 -296 0 0 548 c0 314 -4 573
-10 607 -13 80 -71 196 -114 228 -61 47 -113 62 -212 62 -83 -1 -98 -4 -158
-34 -80 -39 -125 -93 -158 -191 -22 -64 -23 -75 -26 -642 l-3 -578 -284 0
-285 0 0 960 0 960 270 0 270 0 0 -125z"/>
</g>
</svg>
